<svg width="519" height="519" viewBox="0 0 519 519" fill="none" xmlns="http://www.w3.org/2000/svg">
<g clip-path="url(#clip0)">
<path d="M100.885 138.8L3.49256 437.279L39.5593 475.304L203.756 244.997L215.996 253.725L126.834 156.211L129.472 148.128L115.178 143.464L100.885 138.8Z" fill="#FFC34D"/>
<path d="M253.603 201.153L493.721 43.8282L457.832 5.98909L150.419 96.8917L154.682 111.31L154.681 111.31L154.682 111.31L158.944 125.727L166.516 123.488L256.917 216.515L265.158 229.093L275.966 222.011L253.603 201.153Z" fill="#FF884D"/>
<path d="M413.217 416.247L511.498 364.825L487.568 336.499L347.199 322.47L413.217 416.247Z" fill="#FF884D"/>
<path d="M400.689 431.444L349.5 516.596L321.393 492.679L317.32 355.306L400.689 431.444Z" fill="#FFC34D"/>
<path d="M35.5608 39.4105L91.6335 85.4345L215.208 188.622L442.114 453.018C441.964 453.046 441.844 453.025 441.754 453.003L423.234 449.59C413.205 447.733 403.73 443.347 395.837 436.897L309.652 366.536C223.921 292.283 157.01 224.363 85.9242 139.458L72.4738 123.393C72.4738 123.393 34.9619 39.9739 35.5608 39.4105V39.4105Z" fill="#E6F7FF"/>
<path d="M130.016 68.8232L145.343 83.1004C226.378 158.575 290.659 228.975 360.28 318.512L428.469 411.678C433.264 418.228 436.645 425.55 438.535 433.434L442.923 451.776C442.951 451.877 442.979 452.037 442.937 452.217C442.673 452.484 442.398 452.761 442.124 453.018L442.114 453.018L180.491 178.734L91.5625 85.5028L60.1511 44.1435C60.7399 43.58 130.016 68.8232 130.016 68.8232V68.8232Z" fill="#B3D9FF"/>
<path d="M24.4536 15.1462L91.5625 85.5038L91.4812 85.5829C83.0151 93.5699 76.8821 104.014 74.1889 115.846L72.4748 123.392L42.0335 87.0313C31.1003 73.9752 24.0643 58.0539 21.7049 40.9717L19.875 27.8059C19.3261 23.8491 20.3698 19.9837 22.7164 16.8873C23.0215 16.5606 23.3364 16.244 23.6514 15.9274C23.9155 15.6603 24.1796 15.4032 24.4536 15.1462V15.1462Z" fill="#99AAFF"/>
<path d="M37.3261 11.2474L50.3841 13.7664C67.3113 17.0385 82.8545 24.8932 95.3106 36.496L130.016 68.8232L122.39 70.1353C110.575 72.1737 99.9267 77.6358 91.5625 85.5038L24.4536 15.1462C25.0425 14.5827 25.6512 14.0394 26.2797 13.5065C29.4964 11.3239 33.4069 10.4836 37.3261 11.2474V11.2474Z" fill="#8080FF"/>
</g>
<defs>
<clipPath id="clip0">
<rect width="512" height="512" fill="white" transform="translate(0 511.955) rotate(-89.2392)"/>
</clipPath>
</defs>
</svg>
