<svg height="512" viewBox="0 0 128 128" width="512" xmlns="http://www.w3.org/2000/svg"><g><g><g fill="#eaeaf0"><circle cx="32.589" cy="9.5" r="3"/><circle cx="57.958" cy="9.5" r="3"/><circle cx="70.042" cy="9.5" r="3"/><circle cx="95.411" cy="9.5" r="3"/><circle cx="118.5" cy="32.589" r="3"/><circle cx="118.5" cy="57.958" r="3"/><circle cx="118.5" cy="70.042" r="3"/><circle cx="118.5" cy="95.411" r="3"/><circle cx="95.411" cy="118.5" r="3"/><circle cx="70.042" cy="118.5" r="3"/><circle cx="57.958" cy="118.5" r="3"/><circle cx="32.589" cy="118.5" r="3"/><circle cx="9.5" cy="95.411" r="3"/><circle cx="9.5" cy="70.042" r="3"/><circle cx="9.5" cy="57.958" r="3"/><circle cx="9.5" cy="32.589" r="3"/></g><path d="m35.25 35.25h57.5v57.5h-57.5z" fill="#df6379"/><path d="m44.25 44.25h39.5v39.5h-39.5z" fill="#f4d844" transform="matrix(0 1 -1 0 128 0)"/></g><g fill="#2d1418"><path d="m94.5 59.71h19.594a4.751 4.751 0 1 0 0-3.5h-19.594v-.96a1.75 1.75 0 0 0 -3.5 0v35.75h-54v-54h54v10.082a1.745 1.745 0 0 0 3.407.538h12.723a1.751 1.751 0 0 0 1.75-1.75v-11.53h5.214a4.751 4.751 0 1 0 0-3.5h-6.964a1.751 1.751 0 0 0 -1.75 1.75v11.53h-10.88v-8.87a1.751 1.751 0 0 0 -1.75-1.75h-8.87v-10.88h11.53a1.751 1.751 0 0 0 1.75-1.75v-6.964a4.749 4.749 0 1 0 -3.5 0v5.214h-11.53a1.751 1.751 0 0 0 -1.75 1.75v12.63h-8.59v-19.593a4.749 4.749 0 1 0 -3.5 0v19.593h-8.58v-19.594a4.751 4.751 0 1 0 -3.5 0v19.594h-8.59v-12.63a1.751 1.751 0 0 0 -1.75-1.75h-11.53v-5.214a4.751 4.751 0 1 0 -3.5 0v6.964a1.751 1.751 0 0 0 1.75 1.75h11.53v10.88h-8.87a1.751 1.751 0 0 0 -1.75 1.75v8.87h-10.88v-11.53a1.751 1.751 0 0 0 -1.75-1.75h-6.963a4.75 4.75 0 1 0 0 3.5h5.213v11.53a1.751 1.751 0 0 0 1.75 1.75h12.63v8.59h-19.593a4.749 4.749 0 1 0 0 3.5h19.593v8.58h-19.594a4.751 4.751 0 1 0 0 3.5h19.594v8.59h-12.63a1.751 1.751 0 0 0 -1.75 1.75v11.53h-5.214a4.751 4.751 0 1 0 0 3.5h6.964a1.751 1.751 0 0 0 1.75-1.75v-11.53h10.88v8.87a1.751 1.751 0 0 0 1.75 1.75h8.87v10.88h-11.53a1.751 1.751 0 0 0 -1.75 1.75v6.964a4.749 4.749 0 1 0 3.5 0v-5.214h11.53a1.751 1.751 0 0 0 1.75-1.75v-12.63h8.59v19.593a4.749 4.749 0 1 0 3.5 0v-19.593h8.58v19.594a4.751 4.751 0 1 0 3.5 0v-19.594h8.59v12.63a1.751 1.751 0 0 0 1.75 1.75h11.53v5.214a4.75 4.75 0 1 0 3.5 0v-6.964a1.751 1.751 0 0 0 -1.75-1.75h-11.53v-10.88h8.87a1.751 1.751 0 0 0 1.75-1.75v-8.87h10.88v11.53a1.751 1.751 0 0 0 1.75 1.75h6.964a4.749 4.749 0 1 0 0-3.5h-5.214v-11.53a1.751 1.751 0 0 0 -1.75-1.75h-12.63v-8.59h19.593a4.749 4.749 0 1 0 0-3.5h-19.593zm24-3a1.25 1.25 0 1 1 -1.25 1.25 1.252 1.252 0 0 1 1.25-1.252zm0-25.369a1.25 1.25 0 1 1 -1.25 1.25 1.252 1.252 0 0 1 1.25-1.252zm-23.089-23.091a1.25 1.25 0 1 1 -1.25 1.25 1.252 1.252 0 0 1 1.25-1.25zm-25.369 0a1.25 1.25 0 1 1 -1.25 1.25 1.252 1.252 0 0 1 1.25-1.25zm-12.084 0a1.25 1.25 0 1 1 -1.25 1.25 1.251 1.251 0 0 1 1.25-1.25zm-25.369 0a1.25 1.25 0 1 1 -1.25 1.25 1.251 1.251 0 0 1 1.25-1.25zm-23.089 25.589a1.25 1.25 0 1 1 1.25-1.25 1.251 1.251 0 0 1 -1.25 1.25zm0 25.369a1.25 1.25 0 1 1 1.25-1.25 1.251 1.251 0 0 1 -1.25 1.25zm0 12.084a1.25 1.25 0 1 1 1.25-1.25 1.252 1.252 0 0 1 -1.25 1.25zm0 25.369a1.25 1.25 0 1 1 1.25-1.25 1.252 1.252 0 0 1 -1.25 1.25zm23.089 23.089a1.25 1.25 0 1 1 1.25-1.25 1.252 1.252 0 0 1 -1.25 1.25zm25.369 0a1.25 1.25 0 1 1 1.25-1.25 1.252 1.252 0 0 1 -1.25 1.25zm12.084 0a1.25 1.25 0 1 1 1.25-1.25 1.251 1.251 0 0 1 -1.25 1.25zm25.369 0a1.25 1.25 0 1 1 1.25-1.25 1.251 1.251 0 0 1 -1.25 1.25zm23.089-25.589a1.25 1.25 0 1 1 -1.25 1.25 1.251 1.251 0 0 1 1.25-1.25zm0-25.369a1.25 1.25 0 1 1 -1.25 1.25 1.251 1.251 0 0 1 1.25-1.25z"/><path d="m44.25 74.792a1.751 1.751 0 0 0 1.75-1.75v-3.959a1.75 1.75 0 0 0 -3.5 0v3.959a1.751 1.751 0 0 0 1.75 1.75z"/><path d="m42.5 83.75a1.751 1.751 0 0 0 1.75 1.75h39.5a1.751 1.751 0 0 0 1.75-1.75v-39.5a1.751 1.751 0 0 0 -1.75-1.75h-39.5a1.751 1.751 0 0 0 -1.75 1.75v17.75a1.75 1.75 0 0 0 3.5 0v-16h36v36h-36v-2.917a1.75 1.75 0 0 0 -3.5 0z"/><path d="m79.5 64.833v-9.875a1.75 1.75 0 0 0 -3.5 0v9.875a1.75 1.75 0 0 0 3.5 0z"/></g></g></svg>