<svg width="76" height="76" viewBox="0 0 76 76" fill="none" xmlns="http://www.w3.org/2000/svg">
<path d="M55.0345 74.6896H20.9655C19.5176 74.6896 18.3448 73.5168 18.3448 72.0689C18.3448 70.621 19.5176 69.4482 20.9655 69.4482H55.0344C56.4822 69.4482 57.655 70.621 57.655 72.0689C57.6552 73.5169 56.4824 74.6896 55.0345 74.6896Z" fill="#E7ECED"/>
<path d="M44.5517 58.9654V56.3447H31.4483V58.9654C31.4483 64.7598 29.3805 69.4482 23.5861 69.4482H52.4137C46.6195 69.4482 44.5517 64.7598 44.5517 58.9654Z" fill="#AFB6BB"/>
<path d="M72.0676 58.9654H3.93241C1.76106 58.9654 0 57.2044 0 55.0332V47.1724H76V55.0332C76 57.2044 74.2389 58.9654 72.0676 58.9654Z" fill="#E7ECED"/>
<path d="M41.9311 55.0344H34.069C33.3456 55.0344 32.7585 54.4473 32.7585 53.724C32.7585 53.0006 33.3456 52.4136 34.069 52.4136H41.9311C42.6544 52.4136 43.2415 53.0006 43.2415 53.724C43.2415 54.4473 42.6544 55.0344 41.9311 55.0344Z" fill="#AFB6BB"/>
<path d="M65.5172 1.3107H10.4828H3.93241C1.76106 1.3107 0 3.07176 0 5.24295V48.4831H10.4828H30.138H45.8621H65.5173H76V5.24295C76 3.07176 74.2389 1.31055 72.0676 1.31055H65.5172V1.3107Z" fill="#495D72"/>
<path d="M70.7587 6.55176H35.3793V48.4828H70.7587V6.55176Z" fill="#28384C"/>
<path d="M38 6.55176H5.24133V48.4828H38V6.55176Z" fill="#EBBA16"/>
<path d="M19.6539 44.5514C19.4574 44.5514 19.2568 44.5069 19.0682 44.4138C18.4208 44.0902 18.1588 43.3026 18.4824 42.6552L22.4135 34.7933C22.7371 34.1459 23.526 33.8839 24.172 34.2075C24.8194 34.5311 25.0814 35.3187 24.7578 35.9661L20.8267 43.8281C20.5974 44.2867 20.1348 44.5514 19.6539 44.5514Z" fill="white"/>
<path d="M10.4828 40.6204C10.1474 40.6204 9.81188 40.492 9.55642 40.2365C9.04402 39.7241 9.04402 38.896 9.55642 38.3837L13.4875 34.4527C13.9986 33.9403 14.8292 33.9403 15.3403 34.4527C15.8527 34.9651 15.8527 35.7932 15.3403 36.3055L11.4092 40.2365C11.1536 40.492 10.8183 40.6204 10.4828 40.6204Z" fill="white"/>
<path d="M14.4137 44.5516C14.0783 44.5516 13.7428 44.4232 13.4873 44.1677L9.55642 40.2366C9.04402 39.7242 9.04402 38.8961 9.55642 38.3838C10.0675 37.8714 10.8982 37.8714 11.4092 38.3838L15.3403 42.3149C15.8527 42.8273 15.8527 43.6554 15.3403 44.1677C15.0847 44.4232 14.7492 44.5516 14.4137 44.5516Z" fill="white"/>
<path d="M32.7587 40.6204C32.4232 40.6204 32.0877 40.492 31.8323 40.2365L27.9012 36.3055C27.3888 35.7931 27.3888 34.9649 27.9012 34.4527C28.4123 33.9403 29.2429 33.9403 29.754 34.4527L33.6851 38.3837C34.1975 38.8961 34.1975 39.7243 33.6851 40.2365C33.4295 40.492 33.0941 40.6204 32.7587 40.6204Z" fill="white"/>
<path d="M28.8276 44.5516C28.4921 44.5516 28.1567 44.4232 27.9012 44.1677C27.3888 43.6553 27.3888 42.8272 27.9012 42.3149L31.8323 38.3838C32.3434 37.8714 33.174 37.8714 33.6851 38.3838C34.1975 38.8962 34.1975 39.7244 33.6851 40.2366L29.754 44.1677C29.4985 44.4232 29.1631 44.5516 28.8276 44.5516Z" fill="white"/>
<path d="M22.2759 22.2756C21.5525 22.2756 20.9655 21.6886 20.9655 20.9652V11.7928C20.9655 11.0695 21.5525 10.4824 22.2759 10.4824C22.9992 10.4824 23.5863 11.0695 23.5863 11.7928V20.9652C23.5863 21.6886 22.9992 22.2756 22.2759 22.2756Z" fill="white"/>
<path d="M22.2759 30.1375C21.5525 30.1375 20.9655 29.5504 20.9655 28.8271V26.2064C20.9655 25.4831 21.5525 24.896 22.2759 24.896C22.9992 24.896 23.5863 25.4831 23.5863 26.2064V28.8271C23.5863 29.5506 22.9992 30.1375 22.2759 30.1375Z" fill="white"/>
<path d="M56.3448 13.1032H43.2413C42.518 13.1032 41.9309 12.5162 41.9309 11.7928C41.9309 11.0695 42.518 10.4824 43.2413 10.4824H56.3448C57.0681 10.4824 57.6552 11.0695 57.6552 11.7928C57.6552 12.5162 57.0681 13.1032 56.3448 13.1032Z" fill="#DD352E"/>
<path d="M65.5172 13.1032H61.5861C60.8628 13.1032 60.2757 12.5162 60.2757 11.7928C60.2757 11.0695 60.8628 10.4824 61.5861 10.4824H65.5172C66.2405 10.4824 66.8276 11.0695 66.8276 11.7928C66.8276 12.5162 66.2405 13.1032 65.5172 13.1032Z" fill="#366DB6"/>
<path d="M65.5172 18.3449H52.4137C51.6904 18.3449 51.1033 17.7579 51.1033 17.0345C51.1033 16.3112 51.6904 15.7241 52.4137 15.7241H65.5172C66.2405 15.7241 66.8276 16.3112 66.8276 17.0345C66.8276 17.7579 66.2405 18.3449 65.5172 18.3449Z" fill="#75348B"/>
<path d="M47.1724 18.3449H43.2413C42.518 18.3449 41.9309 17.7579 41.9309 17.0345C41.9309 16.3112 42.518 15.7241 43.2413 15.7241H47.1724C47.8957 15.7241 48.4828 16.3112 48.4828 17.0345C48.4828 17.7579 47.8957 18.3449 47.1724 18.3449Z" fill="#57ABC1"/>
<path d="M56.3448 23.5861H43.2413C42.518 23.5861 41.9309 22.9991 41.9309 22.2757C41.9309 21.5524 42.518 20.9653 43.2413 20.9653H56.3448C57.0681 20.9653 57.6552 21.5524 57.6552 22.2757C57.6552 22.9991 57.0681 23.5861 56.3448 23.5861Z" fill="#25AE88"/>
<path d="M65.5172 23.5861H61.5861C60.8628 23.5861 60.2757 22.9991 60.2757 22.2757C60.2757 21.5524 60.8628 20.9653 61.5861 20.9653H65.5172C66.2405 20.9653 66.8276 21.5524 66.8276 22.2757C66.8276 22.9991 66.2405 23.5861 65.5172 23.5861Z" fill="#F76363"/>
<path d="M65.5172 28.8274H52.4137C51.6904 28.8274 51.1033 28.2403 51.1033 27.517C51.1033 26.7936 51.6904 26.2065 52.4137 26.2065H65.5172C66.2405 26.2065 66.8276 26.7936 66.8276 27.517C66.8276 28.2403 66.2405 28.8274 65.5172 28.8274Z" fill="#BF5A45"/>
<path d="M47.1724 28.8274H43.2413C42.518 28.8274 41.9309 28.2403 41.9309 27.517C41.9309 26.7936 42.518 26.2065 43.2413 26.2065H47.1724C47.8957 26.2065 48.4828 26.7936 48.4828 27.517C48.4828 28.2403 47.8957 28.8274 47.1724 28.8274Z" fill="#F2ECBF"/>
<path d="M65.5172 44.552H52.4137C51.6904 44.552 51.1033 43.9649 51.1033 43.2416C51.1033 42.5182 51.6904 41.9312 52.4137 41.9312H65.5172C66.2405 41.9312 66.8276 42.5182 66.8276 43.2416C66.8276 43.9649 66.2405 44.552 65.5172 44.552Z" fill="#25AE88"/>
<path d="M47.1724 44.552H43.2413C42.518 44.552 41.9309 43.9649 41.9309 43.2416C41.9309 42.5182 42.518 41.9312 43.2413 41.9312H47.1724C47.8957 41.9312 48.4828 42.5182 48.4828 43.2416C48.4828 43.9649 47.8957 44.552 47.1724 44.552Z" fill="#DD352E"/>
<path d="M56.3448 34.0691H43.2413C42.518 34.0691 41.9309 33.482 41.9309 32.7586C41.9309 32.0353 42.518 31.4482 43.2413 31.4482H56.3448C57.0681 31.4482 57.6552 32.0353 57.6552 32.7586C57.6552 33.482 57.0681 34.0691 56.3448 34.0691Z" fill="#75348B"/>
<path d="M65.5172 34.0691H61.5861C60.8628 34.0691 60.2757 33.482 60.2757 32.7586C60.2757 32.0353 60.8628 31.4482 61.5861 31.4482H65.5172C66.2405 31.4482 66.8276 32.0353 66.8276 32.7586C66.8276 33.482 66.2405 34.0691 65.5172 34.0691Z" fill="#EBBA16"/>
<path d="M65.5172 39.3103H52.4137C51.6904 39.3103 51.1033 38.7232 51.1033 37.9999C51.1033 37.2765 51.6904 36.6895 52.4137 36.6895H65.5172C66.2405 36.6895 66.8276 37.2765 66.8276 37.9999C66.8276 38.7232 66.2405 39.3103 65.5172 39.3103Z" fill="#ED8A19"/>
<path d="M47.1724 39.3103H43.2413C42.518 39.3103 41.9309 38.7232 41.9309 37.9999C41.9309 37.2765 42.518 36.6895 43.2413 36.6895H47.1724C47.8957 36.6895 48.4828 37.2765 48.4828 37.9999C48.4828 38.7232 47.8957 39.3103 47.1724 39.3103Z" fill="#C5411E"/>
</svg>
