<svg xmlns="http://www.w3.org/2000/svg" width="1940.071" height="1063.96" viewBox="0 0 1940.071 1063.96">
  <path id="Path_1" data-name="Path 1" d="M1921.955,107.418c-6.041,1.391,5.89,808.442,0,809.829-117.112,27.568-227.086,57.193-300.228,81.235-273.393,89.865-304.079,134.944-589.713-13.314C666.285,795.338,384.151,837.135,384.151,837.135S117.691,871.967,49.77,783.147C23.62,748.951,6.623,726.215.3,716.732-9.165,702.522,2.813,149.11-.748,110.466c-.06-.654-1.635-2.717-1.729-3.047" transform="translate(10.283 -18.026)" fill="#8080ff" stroke="#8080ff" stroke-width="1"/>
  <path id="Path_3" data-name="Path 3" d="M1933.03,108.59c-4.6,1.059,4.247,696.329,0,697.324-560.506,131.261-522.705,258.7-885.509,70.387C681.792,686.47,399.658,728.267,399.658,728.267S133.2,763.1,65.277,674.279C41.912,643.724,13.3,625.749,6.333,615.734c-12.872-18.516,4.57-491.15,0-507.145" transform="translate(-1.003 70.499)" fill="#ffc34d" stroke="#ffc34d" stroke-width="1"/>
  <path id="Path_4" data-name="Path 4" d="M1933.03,108.59c-4.6,1.059,4.247,696.329,0,697.324-560.506,131.261-522.705,258.7-885.509,70.387C681.792,686.47,399.658,728.267,399.658,728.267S133.2,763.1,65.277,674.279C41.912,643.724,13.3,625.749,6.333,615.734c-12.872-18.516,4.57-491.15,0-507.145" transform="translate(1.823 53.408)" fill="#ff884d" stroke="#ffc34d" stroke-width="1"/>
  <path id="Path_5" data-name="Path 5" d="M1936.56-27.179c-4.606,1.061,4.255,833.549,0,834.545-561.53,131.49-523.66,259.15-887.127,70.51-366.4-190.162-649.048-148.292-649.048-148.292S133.438,764.477,65.393,675.5c-23.408-30.607-52.076-48.614-59.052-58.647-12.9-18.548,4.578-628.012,0-644.034" transform="translate(1.823 27.666)" fill="#2e313b" stroke="#090909" stroke-width="1"/>
</svg>
