<svg width="83" height="70" viewBox="0 0 83 70" fill="none" xmlns="http://www.w3.org/2000/svg">
<path d="M20.75 9.31641H51.2266V58.291H20.75V9.31641Z" fill="#09A1E5"/>
<path d="M41.5 0L20.75 9.31643L41.5 18.6329H62.25V9.31643L41.5 0Z" fill="#3EC3FF"/>
<path d="M52.5234 18.6328L62.25 70L83 60.6835V18.6328H52.5234Z" fill="#962B7C"/>
<path d="M41.5 18.6328V37.2657L33.3945 48.9745L41.5 60.6835L62.25 70V18.6328H41.5Z" fill="#CB2E81"/>
<path d="M83 18.6328L62.25 9.31641L41.5 18.6328L62.25 27.9491L83 18.6328Z" fill="#FF3187"/>
<path d="M11.0234 37.2656L20.75 70L41.5 60.6835V37.2656H11.0234Z" fill="#FF9259"/>
<path d="M0 37.2656V60.6835L20.75 70V37.2656H0Z" fill="#FFB24A"/>
<path d="M20.75 27.9492L0 37.2658L20.75 46.5821L41.5 37.2658L20.75 27.9492Z" fill="#FFD23B"/>
</svg>
